<?xml version="1.0" standalone="no"?>
<!DOCTYPE svg PUBLIC "-//W3C//DTD SVG 20010904//EN"
 "http://www.w3.org/TR/2001/REC-SVG-20010904/DTD/svg10.dtd">
<svg version="1.0" xmlns="http://www.w3.org/2000/svg"
 width="400.000000pt" height="400.000000pt" viewBox="0 0 400.000000 400.000000"
 preserveAspectRatio="xMidYMid meet">
<metadata>
Created by potrace 1.14, written by Peter Selinger 2001-2017
</metadata>
<g transform="translate(0.000000,400.000000) scale(0.100000,-0.100000)"
fill="#000000" stroke="none">
<path d="M1929 3476 c-2 -2 -29 -6 -59 -9 -106 -11 -170 -25 -291 -63 -369
-116 -650 -373 -740 -674 -43 -148 -33 -348 27 -485 22 -52 21 -57 -11 -62
-471 -62 -795 -360 -771 -709 20 -305 305 -556 713 -628 75 -14 309 -15 378
-3 62 11 132 28 178 43 47 16 47 16 85 -14 180 -140 443 -243 757 -294 143
-23 477 -16 628 13 29 5 67 12 85 15 89 15 275 80 391 137 284 141 476 346
547 582 13 44 18 93 18 180 0 106 -3 129 -28 199 -33 92 -52 128 -111 211 -42
58 -154 173 -205 208 -69 48 -160 105 -202 126 -41 21 -45 26 -37 45 42 98 47
303 10 433 -21 74 -81 198 -123 255 -49 67 -196 207 -268 254 -238 158 -487
233 -801 240 -91 2 -168 2 -170 0z"/>
</g>
</svg>
